<mxfile host="app.diagrams.net" modified="2023-03-22T11:36:15.364Z" agent="5.0 (Macintosh; Intel Mac OS X 10_15_7) AppleWebKit/537.36 (KHTML, like Gecko) Chrome/110.0.0.0 Safari/537.36" etag="Q9UkVSKodlhQwgSro00c" version="21.0.8" type="github">
  <diagram name="Page-1" id="2YBvvXClWsGukQMizWep">
    <mxGraphModel dx="2156" dy="720" grid="1" gridSize="10" guides="1" tooltips="1" connect="1" arrows="1" fold="1" page="1" pageScale="1" pageWidth="850" pageHeight="1100" math="0" shadow="0">
      <root>
        <mxCell id="0" />
        <mxCell id="1" parent="0" />
        <mxCell id="5poNSGUSoTGOrr6AFEc5-1" value="登录组件" style="shape=umlLifeline;perimeter=lifelinePerimeter;whiteSpace=wrap;html=1;container=0;dropTarget=0;collapsible=0;recursiveResize=0;outlineConnect=0;portConstraint=eastwest;newEdgeStyle={&quot;edgeStyle&quot;:&quot;elbowEdgeStyle&quot;,&quot;elbow&quot;:&quot;vertical&quot;,&quot;curved&quot;:0,&quot;rounded&quot;:0};fillColor=#D6FDA4;" vertex="1" parent="1">
          <mxGeometry x="145" y="70" width="100" height="1260" as="geometry" />
        </mxCell>
        <mxCell id="5poNSGUSoTGOrr6AFEc5-2" value="" style="html=1;points=[];perimeter=orthogonalPerimeter;outlineConnect=0;targetShapes=umlLifeline;portConstraint=eastwest;newEdgeStyle={&quot;edgeStyle&quot;:&quot;elbowEdgeStyle&quot;,&quot;elbow&quot;:&quot;vertical&quot;,&quot;curved&quot;:0,&quot;rounded&quot;:0};" vertex="1" parent="5poNSGUSoTGOrr6AFEc5-1">
          <mxGeometry x="45" y="70" width="10" height="1140" as="geometry" />
        </mxCell>
        <mxCell id="5poNSGUSoTGOrr6AFEc5-3" value="" style="html=1;verticalAlign=bottom;startArrow=oval;endArrow=block;startSize=8;edgeStyle=elbowEdgeStyle;elbow=vertical;curved=0;rounded=0;" edge="1" parent="5poNSGUSoTGOrr6AFEc5-1">
          <mxGeometry relative="1" as="geometry">
            <mxPoint x="-45" y="80" as="sourcePoint" />
            <mxPoint x="45" y="80" as="targetPoint" />
          </mxGeometry>
        </mxCell>
        <mxCell id="5poNSGUSoTGOrr6AFEc5-5" value="" style="html=1;points=[];perimeter=orthogonalPerimeter;outlineConnect=0;targetShapes=umlLifeline;portConstraint=eastwest;newEdgeStyle={&quot;edgeStyle&quot;:&quot;elbowEdgeStyle&quot;,&quot;elbow&quot;:&quot;vertical&quot;,&quot;curved&quot;:0,&quot;rounded&quot;:0};fillColor=#808080;" vertex="1" parent="5poNSGUSoTGOrr6AFEc5-1">
          <mxGeometry x="55" y="160" width="10" height="230" as="geometry" />
        </mxCell>
        <mxCell id="5poNSGUSoTGOrr6AFEc5-94" value="" style="html=1;points=[];perimeter=orthogonalPerimeter;outlineConnect=0;targetShapes=umlLifeline;portConstraint=eastwest;newEdgeStyle={&quot;edgeStyle&quot;:&quot;elbowEdgeStyle&quot;,&quot;elbow&quot;:&quot;vertical&quot;,&quot;curved&quot;:0,&quot;rounded&quot;:0};fillColor=#808080;" vertex="1" parent="5poNSGUSoTGOrr6AFEc5-1">
          <mxGeometry x="55" y="430" width="10" height="180" as="geometry" />
        </mxCell>
        <mxCell id="5poNSGUSoTGOrr6AFEc5-7" value="User Center" style="shape=umlLifeline;perimeter=lifelinePerimeter;whiteSpace=wrap;html=1;container=0;dropTarget=0;collapsible=0;recursiveResize=0;outlineConnect=0;portConstraint=eastwest;newEdgeStyle={&quot;edgeStyle&quot;:&quot;elbowEdgeStyle&quot;,&quot;elbow&quot;:&quot;vertical&quot;,&quot;curved&quot;:0,&quot;rounded&quot;:0};fillColor=#FFFED1;" vertex="1" parent="1">
          <mxGeometry x="370" y="70" width="100" height="1250" as="geometry" />
        </mxCell>
        <mxCell id="5poNSGUSoTGOrr6AFEc5-8" value="" style="html=1;points=[];perimeter=orthogonalPerimeter;outlineConnect=0;targetShapes=umlLifeline;portConstraint=eastwest;newEdgeStyle={&quot;edgeStyle&quot;:&quot;elbowEdgeStyle&quot;,&quot;elbow&quot;:&quot;vertical&quot;,&quot;curved&quot;:0,&quot;rounded&quot;:0};" vertex="1" parent="5poNSGUSoTGOrr6AFEc5-7">
          <mxGeometry x="45" y="70" width="10" height="890" as="geometry" />
        </mxCell>
        <mxCell id="5poNSGUSoTGOrr6AFEc5-101" value="" style="html=1;points=[];perimeter=orthogonalPerimeter;outlineConnect=0;targetShapes=umlLifeline;portConstraint=eastwest;newEdgeStyle={&quot;edgeStyle&quot;:&quot;elbowEdgeStyle&quot;,&quot;elbow&quot;:&quot;vertical&quot;,&quot;curved&quot;:0,&quot;rounded&quot;:0};fillColor=#FFFFFF;" vertex="1" parent="5poNSGUSoTGOrr6AFEc5-7">
          <mxGeometry x="35" y="530" width="10" height="80" as="geometry" />
        </mxCell>
        <mxCell id="5poNSGUSoTGOrr6AFEc5-10" value="发起&lt;font color=&quot;#0000cc&quot;&gt;三方登录验证申请&lt;/font&gt;（接口1）" style="html=1;verticalAlign=bottom;endArrow=block;edgeStyle=elbowEdgeStyle;elbow=horizontal;curved=0;rounded=0;" edge="1" parent="1">
          <mxGeometry x="0.0047" relative="1" as="geometry">
            <mxPoint x="200" y="163" as="sourcePoint" />
            <Array as="points">
              <mxPoint x="285" y="163" />
            </Array>
            <mxPoint as="offset" />
            <mxPoint x="415" y="163" as="targetPoint" />
          </mxGeometry>
        </mxCell>
        <mxCell id="5poNSGUSoTGOrr6AFEc5-11" value="Yoda" style="shape=umlLifeline;perimeter=lifelinePerimeter;whiteSpace=wrap;html=1;container=0;dropTarget=0;collapsible=0;recursiveResize=0;outlineConnect=0;portConstraint=eastwest;newEdgeStyle={&quot;edgeStyle&quot;:&quot;elbowEdgeStyle&quot;,&quot;elbow&quot;:&quot;vertical&quot;,&quot;curved&quot;:0,&quot;rounded&quot;:0};fillColor=#E49F9A;" vertex="1" parent="1">
          <mxGeometry x="594" y="70" width="100" height="1260" as="geometry" />
        </mxCell>
        <mxCell id="5poNSGUSoTGOrr6AFEc5-32" value="" style="endArrow=classic;html=1;rounded=0;" edge="1" parent="1">
          <mxGeometry width="50" height="50" relative="1" as="geometry">
            <mxPoint x="212" y="280" as="sourcePoint" />
            <mxPoint x="212" y="330" as="targetPoint" />
            <Array as="points">
              <mxPoint x="232" y="280" />
              <mxPoint x="250" y="280" />
              <mxPoint x="250" y="330" />
            </Array>
          </mxGeometry>
        </mxCell>
        <mxCell id="5poNSGUSoTGOrr6AFEc5-33" value="提示用户后，&lt;br&gt;切换至手机号验证码登录" style="text;html=1;align=center;verticalAlign=middle;resizable=0;points=[];autosize=1;strokeColor=none;fillColor=none;" vertex="1" parent="1">
          <mxGeometry x="248" y="284" width="160" height="40" as="geometry" />
        </mxCell>
        <mxCell id="5poNSGUSoTGOrr6AFEc5-64" value="用户调用&amp;nbsp;i&lt;font style=&quot;border-color: var(--border-color); font-size: 11px;&quot; color=&quot;#0000ff&quot;&gt;LoginComp.&lt;/font&gt;&lt;span style=&quot;border-color: var(--border-color); font-family: Menlo, Monaco, &amp;quot;Courier New&amp;quot;, monospace;&quot;&gt;&lt;font style=&quot;border-color: var(--border-color);&quot; color=&quot;#0000ff&quot;&gt;thirdLogin&lt;br&gt;&lt;/font&gt;触发三方登录&lt;/span&gt;" style="text;whiteSpace=wrap;html=1;align=center;" vertex="1" parent="1">
          <mxGeometry x="-79.5" y="110" width="340" height="20" as="geometry" />
        </mxCell>
        <mxCell id="5poNSGUSoTGOrr6AFEc5-73" style="edgeStyle=elbowEdgeStyle;rounded=0;orthogonalLoop=1;jettySize=auto;html=1;elbow=vertical;curved=0;dashed=1;" edge="1" parent="1">
          <mxGeometry relative="1" as="geometry">
            <mxPoint x="415" y="205" as="sourcePoint" />
            <mxPoint x="202.5" y="205" as="targetPoint" />
          </mxGeometry>
        </mxCell>
        <mxCell id="5poNSGUSoTGOrr6AFEc5-74" value="&lt;span style=&quot;font-size: 11px; background-color: rgb(255, 255, 255);&quot;&gt;&lt;font color=&quot;#006600&quot;&gt;三方登录成功&lt;/font&gt;&lt;/span&gt;" style="text;whiteSpace=wrap;html=1;align=center;" vertex="1" parent="1">
          <mxGeometry x="207" y="182" width="196" height="20" as="geometry" />
        </mxCell>
        <mxCell id="5poNSGUSoTGOrr6AFEc5-77" value="三方登录失败，未绑定手机号、账号状态异常、&lt;span style=&quot;font-family: Menlo, Monaco, &amp;quot;Courier New&amp;quot;, monospace;&quot;&gt;风控拒绝&lt;/span&gt;&lt;span style=&quot;font-family: Menlo, Monaco, &amp;quot;Courier New&amp;quot;, monospace;&quot;&gt;&lt;br&gt;&lt;/span&gt;&lt;span style=&quot;font-size: 11px; background-color: rgb(255, 255, 255);&quot;&gt;&lt;font color=&quot;#0000cc&quot;&gt;返回三方登录&amp;nbsp;&lt;/font&gt;&lt;/span&gt;&lt;font color=&quot;#0000cc&quot;&gt;ticket&lt;/font&gt;" style="text;whiteSpace=wrap;html=1;align=center;" vertex="1" parent="1">
          <mxGeometry x="212" y="210" width="196" height="20" as="geometry" />
        </mxCell>
        <mxCell id="5poNSGUSoTGOrr6AFEc5-79" style="edgeStyle=elbowEdgeStyle;rounded=0;orthogonalLoop=1;jettySize=auto;html=1;elbow=vertical;curved=0;dashed=1;" edge="1" parent="1">
          <mxGeometry relative="1" as="geometry">
            <mxPoint x="410" y="260" as="sourcePoint" />
            <mxPoint x="210.5" y="260" as="targetPoint" />
          </mxGeometry>
        </mxCell>
        <mxCell id="5poNSGUSoTGOrr6AFEc5-85" value="" style="endArrow=classic;html=1;rounded=0;" edge="1" parent="1">
          <mxGeometry width="50" height="50" relative="1" as="geometry">
            <mxPoint x="210" y="370" as="sourcePoint" />
            <mxPoint x="408" y="370" as="targetPoint" />
          </mxGeometry>
        </mxCell>
        <mxCell id="5poNSGUSoTGOrr6AFEc5-86" value="&lt;span style=&quot;font-family: Helvetica; font-size: 11px; font-style: normal; font-variant-ligatures: normal; font-variant-caps: normal; font-weight: 400; letter-spacing: normal; orphans: 2; text-indent: 0px; text-transform: none; widows: 2; word-spacing: 0px; -webkit-text-stroke-width: 0px; background-color: rgb(255, 255, 255); text-decoration-thickness: initial; text-decoration-style: initial; text-decoration-color: initial; float: none; display: inline !important;&quot;&gt;发起三方登录请求，&lt;br&gt;传入&lt;font style=&quot;border-color: var(--border-color);&quot; color=&quot;#0000cc&quot;&gt;&lt;font style=&quot;border-color: var(--border-color);&quot; color=&quot;#0000cc&quot;&gt;三方登录&amp;nbsp;&lt;/font&gt;&lt;font style=&quot;border-color: var(--border-color); font-size: 12px; background-color: rgb(251, 251, 251);&quot; color=&quot;#0000cc&quot;&gt;ticket&lt;/font&gt;&lt;/font&gt;（接口2）&lt;/span&gt;" style="text;whiteSpace=wrap;html=1;align=center;" vertex="1" parent="1">
          <mxGeometry x="238" y="330" width="170" height="20" as="geometry" />
        </mxCell>
        <mxCell id="5poNSGUSoTGOrr6AFEc5-87" style="edgeStyle=elbowEdgeStyle;rounded=0;orthogonalLoop=1;jettySize=auto;html=1;elbow=vertical;curved=0;dashed=1;" edge="1" parent="1">
          <mxGeometry relative="1" as="geometry">
            <mxPoint x="410" y="403" as="sourcePoint" />
            <mxPoint x="208.75" y="403" as="targetPoint" />
          </mxGeometry>
        </mxCell>
        <mxCell id="5poNSGUSoTGOrr6AFEc5-88" value="&lt;span style=&quot;font-size: 11px; background-color: rgb(255, 255, 255);&quot;&gt;&lt;font color=&quot;#006600&quot;&gt;三方登录成功&lt;/font&gt;&lt;/span&gt;" style="text;whiteSpace=wrap;html=1;align=center;" vertex="1" parent="1">
          <mxGeometry x="213.25" y="378" width="196" height="20" as="geometry" />
        </mxCell>
        <mxCell id="5poNSGUSoTGOrr6AFEc5-90" style="edgeStyle=elbowEdgeStyle;rounded=0;orthogonalLoop=1;jettySize=auto;html=1;elbow=vertical;curved=0;dashed=1;" edge="1" parent="1">
          <mxGeometry relative="1" as="geometry">
            <mxPoint x="411.87" y="450" as="sourcePoint" />
            <mxPoint x="210.62" y="450" as="targetPoint" />
          </mxGeometry>
        </mxCell>
        <mxCell id="5poNSGUSoTGOrr6AFEc5-91" value="三方登录失败，&lt;br&gt;二次验证与二次放号与普通登录相同" style="text;whiteSpace=wrap;html=1;align=center;" vertex="1" parent="1">
          <mxGeometry x="209" y="410" width="196" height="20" as="geometry" />
        </mxCell>
        <mxCell id="5poNSGUSoTGOrr6AFEc5-93" value="" style="html=1;points=[];perimeter=orthogonalPerimeter;outlineConnect=0;targetShapes=umlLifeline;portConstraint=eastwest;newEdgeStyle={&quot;edgeStyle&quot;:&quot;elbowEdgeStyle&quot;,&quot;elbow&quot;:&quot;vertical&quot;,&quot;curved&quot;:0,&quot;rounded&quot;:0};fillColor=#FFFFFF;" vertex="1" parent="1">
          <mxGeometry x="405" y="360" width="10" height="100" as="geometry" />
        </mxCell>
        <mxCell id="5poNSGUSoTGOrr6AFEc5-95" style="edgeStyle=elbowEdgeStyle;rounded=0;orthogonalLoop=1;jettySize=auto;html=1;elbow=vertical;curved=0;dashed=1;" edge="1" parent="1">
          <mxGeometry relative="1" as="geometry">
            <mxPoint x="412.62" y="510" as="sourcePoint" />
            <mxPoint x="211.37" y="510" as="targetPoint" />
          </mxGeometry>
        </mxCell>
        <mxCell id="5poNSGUSoTGOrr6AFEc5-96" value="三方登录失败，需进行一次验证，&lt;br&gt;返回&lt;font style=&quot;border-color: var(--border-color);&quot; color=&quot;#990099&quot;&gt;滑块验证&amp;nbsp;requestCode、st&lt;/font&gt;" style="text;whiteSpace=wrap;html=1;align=center;" vertex="1" parent="1">
          <mxGeometry x="214" y="470" width="196" height="20" as="geometry" />
        </mxCell>
        <mxCell id="5poNSGUSoTGOrr6AFEc5-97" value="" style="endArrow=classic;html=1;rounded=0;" edge="1" parent="1">
          <mxGeometry width="50" height="50" relative="1" as="geometry">
            <mxPoint x="212" y="535" as="sourcePoint" />
            <mxPoint x="212" y="585" as="targetPoint" />
            <Array as="points">
              <mxPoint x="232" y="535" />
              <mxPoint x="232" y="585" />
            </Array>
          </mxGeometry>
        </mxCell>
        <mxCell id="5poNSGUSoTGOrr6AFEc5-98" value="加载 Yoda 一次验证组件，&lt;br style=&quot;border-color: var(--border-color); font-size: 11px;&quot;&gt;&lt;span style=&quot;font-size: 11px; background-color: rgb(255, 255, 255);&quot;&gt;传入&lt;/span&gt;&lt;font style=&quot;border-color: var(--border-color);&quot; color=&quot;#990099&quot;&gt;滑块验证&amp;nbsp;requestCode&lt;/font&gt;" style="text;html=1;align=center;verticalAlign=middle;resizable=0;points=[];autosize=1;strokeColor=none;fillColor=none;" vertex="1" parent="1">
          <mxGeometry x="235" y="540" width="170" height="40" as="geometry" />
        </mxCell>
        <mxCell id="5poNSGUSoTGOrr6AFEc5-99" value="" style="endArrow=classic;html=1;rounded=0;" edge="1" parent="1">
          <mxGeometry width="50" height="50" relative="1" as="geometry">
            <mxPoint x="212" y="630" as="sourcePoint" />
            <mxPoint x="400" y="630" as="targetPoint" />
          </mxGeometry>
        </mxCell>
        <mxCell id="5poNSGUSoTGOrr6AFEc5-100" value="&lt;span style=&quot;font-family: Helvetica; font-style: normal; font-variant-ligatures: normal; font-variant-caps: normal; font-weight: 400; letter-spacing: normal; orphans: 2; text-indent: 0px; text-transform: none; widows: 2; word-spacing: 0px; -webkit-text-stroke-width: 0px; text-decoration-thickness: initial; text-decoration-style: initial; text-decoration-color: initial; float: none; display: inline !important; background-color: rgb(255, 255, 255); font-size: 11px;&quot;&gt;发起 h5 风控登录请求，&lt;br&gt;传入&lt;font style=&quot;border-color: var(--border-color);&quot; color=&quot;#0000cc&quot;&gt;&lt;font style=&quot;border-color: var(--border-color);&quot; color=&quot;#0000cc&quot;&gt;requestCode、st&lt;/font&gt;&lt;/font&gt;（接口3）&lt;/span&gt;" style="text;whiteSpace=wrap;html=1;align=center;" vertex="1" parent="1">
          <mxGeometry x="220" y="590" width="177" height="20" as="geometry" />
        </mxCell>
        <mxCell id="5poNSGUSoTGOrr6AFEc5-103" style="edgeStyle=elbowEdgeStyle;rounded=0;orthogonalLoop=1;jettySize=auto;html=1;elbow=vertical;curved=0;dashed=1;" edge="1" parent="1" source="5poNSGUSoTGOrr6AFEc5-101">
          <mxGeometry relative="1" as="geometry">
            <mxPoint x="413.25" y="665" as="sourcePoint" />
            <mxPoint x="212" y="665" as="targetPoint" />
          </mxGeometry>
        </mxCell>
        <mxCell id="5poNSGUSoTGOrr6AFEc5-104" value="&lt;span style=&quot;font-size: 11px; background-color: rgb(255, 255, 255);&quot;&gt;&lt;font color=&quot;#006600&quot;&gt;三方登录成功&lt;/font&gt;&lt;/span&gt;" style="text;whiteSpace=wrap;html=1;align=center;" vertex="1" parent="1">
          <mxGeometry x="216.5" y="640" width="196" height="20" as="geometry" />
        </mxCell>
        <mxCell id="5poNSGUSoTGOrr6AFEc5-105" value="" style="html=1;points=[];perimeter=orthogonalPerimeter;outlineConnect=0;targetShapes=umlLifeline;portConstraint=eastwest;newEdgeStyle={&quot;edgeStyle&quot;:&quot;elbowEdgeStyle&quot;,&quot;elbow&quot;:&quot;vertical&quot;,&quot;curved&quot;:0,&quot;rounded&quot;:0};fillColor=#808080;" vertex="1" parent="1">
          <mxGeometry x="200" y="720" width="10" height="180" as="geometry" />
        </mxCell>
        <mxCell id="5poNSGUSoTGOrr6AFEc5-106" value="" style="html=1;points=[];perimeter=orthogonalPerimeter;outlineConnect=0;targetShapes=umlLifeline;portConstraint=eastwest;newEdgeStyle={&quot;edgeStyle&quot;:&quot;elbowEdgeStyle&quot;,&quot;elbow&quot;:&quot;vertical&quot;,&quot;curved&quot;:0,&quot;rounded&quot;:0};fillColor=#FFFFFF;" vertex="1" parent="1">
          <mxGeometry x="405" y="810" width="10" height="80" as="geometry" />
        </mxCell>
        <mxCell id="5poNSGUSoTGOrr6AFEc5-107" style="edgeStyle=elbowEdgeStyle;rounded=0;orthogonalLoop=1;jettySize=auto;html=1;elbow=vertical;curved=0;dashed=1;" edge="1" parent="1">
          <mxGeometry relative="1" as="geometry">
            <mxPoint x="412.62" y="730" as="sourcePoint" />
            <mxPoint x="211.37" y="730" as="targetPoint" />
          </mxGeometry>
        </mxCell>
        <mxCell id="5poNSGUSoTGOrr6AFEc5-108" value="三方登录失败，需进行二次放号，&lt;br&gt;返回&lt;font style=&quot;border-color: var(--border-color);&quot; color=&quot;#990099&quot;&gt;userTicket、st&lt;/font&gt;" style="text;whiteSpace=wrap;html=1;align=center;" vertex="1" parent="1">
          <mxGeometry x="214" y="690" width="196" height="20" as="geometry" />
        </mxCell>
        <mxCell id="5poNSGUSoTGOrr6AFEc5-109" value="" style="endArrow=classic;html=1;rounded=0;" edge="1" parent="1">
          <mxGeometry width="50" height="50" relative="1" as="geometry">
            <mxPoint x="210" y="740" as="sourcePoint" />
            <mxPoint x="210" y="790" as="targetPoint" />
            <Array as="points">
              <mxPoint x="230" y="740" />
              <mxPoint x="230" y="790" />
            </Array>
          </mxGeometry>
        </mxCell>
        <mxCell id="5poNSGUSoTGOrr6AFEc5-110" value="加载 Yoda 二次放号组件" style="text;html=1;align=center;verticalAlign=middle;resizable=0;points=[];autosize=1;strokeColor=none;fillColor=none;" vertex="1" parent="1">
          <mxGeometry x="243" y="750" width="150" height="30" as="geometry" />
        </mxCell>
        <mxCell id="5poNSGUSoTGOrr6AFEc5-111" value="" style="endArrow=classic;html=1;rounded=0;" edge="1" parent="1">
          <mxGeometry width="50" height="50" relative="1" as="geometry">
            <mxPoint x="212" y="840" as="sourcePoint" />
            <mxPoint x="400" y="840" as="targetPoint" />
          </mxGeometry>
        </mxCell>
        <mxCell id="5poNSGUSoTGOrr6AFEc5-112" value="&lt;span style=&quot;font-family: Helvetica; font-style: normal; font-variant-ligatures: normal; font-variant-caps: normal; font-weight: 400; letter-spacing: normal; orphans: 2; text-indent: 0px; text-transform: none; widows: 2; word-spacing: 0px; -webkit-text-stroke-width: 0px; text-decoration-thickness: initial; text-decoration-style: initial; text-decoration-color: initial; float: none; display: inline !important; background-color: rgb(255, 255, 255); font-size: 11px;&quot;&gt;发起 h5 风控登录请求，&lt;br&gt;传入&lt;font style=&quot;border-color: var(--border-color);&quot; color=&quot;#0000cc&quot;&gt;&lt;font style=&quot;border-color: var(--border-color);&quot; color=&quot;#0000cc&quot;&gt;requestCode、st&lt;/font&gt;&lt;/font&gt;（接口3）&lt;/span&gt;" style="text;whiteSpace=wrap;html=1;align=center;" vertex="1" parent="1">
          <mxGeometry x="220" y="800" width="177" height="20" as="geometry" />
        </mxCell>
        <mxCell id="5poNSGUSoTGOrr6AFEc5-113" style="edgeStyle=elbowEdgeStyle;rounded=0;orthogonalLoop=1;jettySize=auto;html=1;elbow=vertical;curved=0;dashed=1;" edge="1" parent="1" source="5poNSGUSoTGOrr6AFEc5-106">
          <mxGeometry relative="1" as="geometry">
            <mxPoint x="413.25" y="875" as="sourcePoint" />
            <mxPoint x="212" y="875" as="targetPoint" />
          </mxGeometry>
        </mxCell>
        <mxCell id="5poNSGUSoTGOrr6AFEc5-114" value="&lt;span style=&quot;font-size: 11px; background-color: rgb(255, 255, 255);&quot;&gt;&lt;font color=&quot;#006600&quot;&gt;三方登录成功&lt;/font&gt;&lt;/span&gt;" style="text;whiteSpace=wrap;html=1;align=center;" vertex="1" parent="1">
          <mxGeometry x="216.5" y="850" width="196" height="20" as="geometry" />
        </mxCell>
      </root>
    </mxGraphModel>
  </diagram>
</mxfile>
